<?xml version="1.0" encoding="UTF-8" standalone="no"?>
<svg
   xmlns:dc="http://purl.org/dc/elements/1.1/"
   xmlns:cc="http://creativecommons.org/ns#"
   xmlns:rdf="http://www.w3.org/1999/02/22-rdf-syntax-ns#"
   xmlns:svg="http://www.w3.org/2000/svg"
   xmlns="http://www.w3.org/2000/svg"
   xmlns:sodipodi="http://sodipodi.sourceforge.net/DTD/sodipodi-0.dtd"
   xmlns:inkscape="http://www.inkscape.org/namespaces/inkscape"
   viewBox="0 0 512 512"
   id="svg2"
   version="1.1"
   inkscape:version="0.48.4 r9939"
   width="100%"
   height="100%"
   sodipodi:docname="attack.svg">
  <metadata
     id="metadata36">
    <rdf:RDF>
      <cc:Work
         rdf:about="">
        <dc:format>image/svg+xml</dc:format>
        <dc:type
           rdf:resource="http://purl.org/dc/dcmitype/StillImage" />
      </cc:Work>
    </rdf:RDF>
  </metadata>
  <defs
     id="defs34" />
  <sodipodi:namedview
     pagecolor="#ffffff"
     bordercolor="#666666"
     borderopacity="1"
     objecttolerance="10"
     gridtolerance="10"
     guidetolerance="10"
     inkscape:pageopacity="0"
     inkscape:pageshadow="2"
     inkscape:window-width="1680"
     inkscape:window-height="988"
     id="namedview32"
     showgrid="false"
     inkscape:zoom="0.921875"
     inkscape:cx="313.56768"
     inkscape:cy="229.54551"
     inkscape:window-x="1432"
     inkscape:window-y="109"
     inkscape:window-maximized="1"
     inkscape:current-layer="svg2" />
  <path
     d="m0,0h512v512h-512z"
     id="path4"
     style="fill:#230602;fill-opacity:1" />
  <path
     d="M 116.61481,322.48474 C 236.2981,202.80145 345.43009,95.931702 491.63218,14.449633 415.51598,158.00609 301.16732,265.19679 183.16683,383.19728"
     id="path10"
     inkscape:connector-curvature="0"
     style="fill:#ffffff;fill-rule:evenodd" />
  <path
     d="M 355.9016,146.93953 137.13262,365.70816"
     id="path12"
     inkscape:connector-curvature="0"
     style="fill:#ffffff;fill-rule:evenodd;stroke:#230602;stroke-width:18.68783188000000100;stroke-opacity:1" />
  <path
     d="M 56.901542,282.1566 220.68452,445.93959 249.2036,417.42051 C 180.89765,377.95459 121.62157,324.82331 85.420613,253.63753 L 56.901542,282.1566 z"
     id="path14"
     inkscape:connector-curvature="0"
     style="fill:#ffffff" />
  <path
     d="m 19.810616,454.9677 28.061072,28.06108 C 76.734258,439.26391 112.20831,402.10706 156.81457,374.08589 L 128.7535,346.02482 c -26.41818,46.20926 -64.855339,80.403 -108.942884,108.94288 z"
     id="path16"
     inkscape:connector-curvature="0"
     style="fill:#ffffff" />
  <path
     d="M 394.77819,322.48474 C 275.0949,202.80145 165.96291,95.931702 19.760821,14.449633 95.877022,158.00609 210.22568,265.19679 328.22617,383.19728"
     id="path20"
     inkscape:connector-curvature="0"
     style="fill:#ffffff;fill-rule:evenodd" />
  <path
     d="M 155.4914,146.93953 374.26038,365.70816"
     id="path22"
     inkscape:connector-curvature="0"
     style="fill:#ffffff;fill-rule:evenodd;stroke:#230602;stroke-width:18.68783188000000100;stroke-opacity:1" />
  <path
     d="M 454.49146,282.1566 290.70848,445.93959 262.1894,417.42051 c 68.30595,-39.46592 127.58203,-92.5972 163.78299,-163.78298 l 28.51907,28.51907 z"
     id="path24"
     inkscape:connector-curvature="0"
     style="fill:#ffffff" />
  <path
     d="m 491.58238,454.9677 -28.06107,28.06108 C 434.65874,439.26391 399.18469,402.10706 354.57843,374.08589 l 28.06107,-28.06107 c 26.41818,46.20926 64.85534,80.403 108.94288,108.94288 z"
     id="path26"
     inkscape:connector-curvature="0"
     style="fill:#ffffff" />
  <path
     style="fill:none;stroke:#230602;stroke-width:18.68857956000000100;stroke-opacity:1"
     inkscape:connector-curvature="0"
     id="path28"
     d="m 174.85089,240.83186 87.89426,90.81529" />
  <path
     style="fill:none;stroke:#230602;stroke-width:18.68857956000000100;stroke-opacity:1"
     inkscape:connector-curvature="0"
     id="path30"
     d="m 248.72872,168.70702 93.15136,87.89426" />
</svg>
