<?xml version="1.0" encoding="UTF-8" standalone="no"?>
<svg
   xmlns:dc="http://purl.org/dc/elements/1.1/"
   xmlns:cc="http://creativecommons.org/ns#"
   xmlns:rdf="http://www.w3.org/1999/02/22-rdf-syntax-ns#"
   xmlns:svg="http://www.w3.org/2000/svg"
   xmlns="http://www.w3.org/2000/svg"
   xmlns:sodipodi="http://sodipodi.sourceforge.net/DTD/sodipodi-0.dtd"
   xmlns:inkscape="http://www.inkscape.org/namespaces/inkscape"
   viewBox="0 0 512 512"
   id="svg2"
   version="1.1"
   inkscape:version="0.48.4 r9939"
   width="100%"
   height="100%"
   sodipodi:docname="battle-axe.svg">
  <metadata
     id="metadata24">
    <rdf:RDF>
      <cc:Work
         rdf:about="">
        <dc:format>image/svg+xml</dc:format>
        <dc:type
           rdf:resource="http://purl.org/dc/dcmitype/StillImage" />
      </cc:Work>
    </rdf:RDF>
  </metadata>
  <defs
     id="defs22" />
  <sodipodi:namedview
     pagecolor="#ffffff"
     bordercolor="#666666"
     borderopacity="1"
     objecttolerance="10"
     gridtolerance="10"
     guidetolerance="10"
     inkscape:pageopacity="0"
     inkscape:pageshadow="2"
     inkscape:window-width="1680"
     inkscape:window-height="988"
     id="namedview20"
     showgrid="false"
     inkscape:zoom="0.921875"
     inkscape:cx="292.00049"
     inkscape:cy="268.8299"
     inkscape:window-x="1432"
     inkscape:window-y="109"
     inkscape:window-maximized="1"
     inkscape:current-layer="svg2" />
  <path
     d="m0,0h512v512h-512z"
     id="path4"
     style="fill:#230602;fill-opacity:1" />
  <path
     style="fill:#ffffff;stroke:#230602;stroke-width:18.68857956000000100;stroke-opacity:1"
     inkscape:connector-curvature="0"
     id="path8"
     d="M 308.06308,23.27624 C 142.95508,-43.012153 -35.132136,158.07697 21.989509,315.7357 94.318051,273.68826 169.73021,264.17391 209.46026,303.86284 249.24077,343.60037 239.67783,418.9303 197.58741,491.3336 355.24614,548.45524 556.33526,370.36802 490.04686,205.26003 413.23867,250.21167 357.7205,242.09709 314.51811,198.80686 271.39048,155.59326 263.17311,99.981648 308.06495,23.278109 z" />
  <path
     d="M 299.04148,81.046499 C 178.66797,66.766166 69.81983,161.35135 87.28048,297.31729"
     id="path12"
     inkscape:connector-curvature="0"
     style="fill:none;stroke:#230602;stroke-width:18.68894385999999800;stroke-opacity:1" />
  <path
     d="m 432.54323,214.54825 c 14.28033,120.37351 -80.30485,229.22165 -216.27079,211.761"
     id="path14"
     inkscape:connector-curvature="0"
     style="fill:none;stroke:#230602;stroke-width:18.68894385999999800;stroke-opacity:1" />
  <path
     style="fill:#ffffff;stroke:#230602;stroke-width:18.68857956000000100;stroke-opacity:1"
     inkscape:connector-curvature="0"
     id="path16"
     d="M 332.10781,136.48979 10.740853,457.85487 v 45.4824 H 52.633174 L 375.79423,180.17808 332.10781,136.49166 z" />
  <path
     style="fill:#ffffff;stroke:#230602;stroke-width:18.68857956000000100;stroke-opacity:1"
     inkscape:connector-curvature="0"
     id="path18"
     d="M 294.98668,159.48235 352.80167,217.29734 220.2361,349.86291 162.42111,292.04792 294.98668,159.48235 z" />
</svg>
