<?xml version="1.0" encoding="UTF-8" standalone="no"?>
<svg
   xmlns:dc="http://purl.org/dc/elements/1.1/"
   xmlns:cc="http://creativecommons.org/ns#"
   xmlns:rdf="http://www.w3.org/1999/02/22-rdf-syntax-ns#"
   xmlns:svg="http://www.w3.org/2000/svg"
   xmlns="http://www.w3.org/2000/svg"
   xmlns:sodipodi="http://sodipodi.sourceforge.net/DTD/sodipodi-0.dtd"
   xmlns:inkscape="http://www.inkscape.org/namespaces/inkscape"
   viewBox="0 0 512 512"
   id="svg2"
   version="1.1"
   inkscape:version="0.48.4 r9939"
   width="100%"
   height="100%"
   sodipodi:docname="broadsword.svg">
  <metadata
     id="metadata38">
    <rdf:RDF>
      <cc:Work
         rdf:about="">
        <dc:format>image/svg+xml</dc:format>
        <dc:type
           rdf:resource="http://purl.org/dc/dcmitype/StillImage" />
      </cc:Work>
    </rdf:RDF>
  </metadata>
  <defs
     id="defs36" />
  <sodipodi:namedview
     pagecolor="#ffffff"
     bordercolor="#666666"
     borderopacity="1"
     objecttolerance="10"
     gridtolerance="10"
     guidetolerance="10"
     inkscape:pageopacity="0"
     inkscape:pageshadow="2"
     inkscape:window-width="1680"
     inkscape:window-height="988"
     id="namedview34"
     showgrid="false"
     inkscape:zoom="1.3037281"
     inkscape:cx="372.58834"
     inkscape:cy="169.4619"
     inkscape:window-x="1432"
     inkscape:window-y="109"
     inkscape:window-maximized="1"
     inkscape:current-layer="svg2"
     inkscape:snap-to-guides="false" />
  <path
     d="m0,0h512v512h-512z"
     id="path4"
     style="fill:#230602;fill-opacity:1" />
  <path
     style="fill:#ffffff"
     inkscape:connector-curvature="0"
     id="path8"
     d="m 171.79592,296.32783 c 16.56221,0.001 30.14578,-13.58226 30.14578,-30.14579 0.001,-6.21231 -2.10777,-12.11672 -5.3692,-16.93222 L 408.4242,37.398111 491.84313,22.532693 476.97771,105.95162 265.12601,317.80333 c -4.74415,-3.18479 -10.30761,-4.95558 -16.5186,-4.95558 -16.56221,-0.001 -30.14579,13.58225 -30.14579,30.14578" />
  <path
     style="fill:#ffffff;stroke:#230602;stroke-width:18.68866158000000200;stroke-opacity:1"
     inkscape:connector-curvature="0"
     id="path10"
     d="m 13.747273,460.16723 40.46132,40.46132 133.907697,-133.9077 -40.46132,-40.46132 z" />
  <path
     style="fill:none;stroke:#230602;stroke-width:18.68866158000000200;stroke-opacity:1"
     inkscape:connector-curvature="0"
     id="path14"
     d="M 240.54104,273.83478 432.2242,82.151624" />
  <path
     style="fill:#ffffff;stroke:#230602;stroke-width:18.68866158000000200;stroke-opacity:1"
     inkscape:connector-curvature="0"
     id="path16"
     d="M 58.878731,258.67731 255.69851,455.49709 311.57499,399.62061 C 229.15378,352.03383 161.80415,284.29039 114.75521,202.80084 l -55.876479,55.87647 z" />
  <path
     style="fill-rule:evenodd;fill:#230602;fill-opacity:1"
     inkscape:connector-curvature="0"
     id="path20"
     d="m 249.6461,358.24879 -23.65464,23.65464 -93.52038,-93.52039 23.65463,-23.65463" />
  <path
     style="stroke:#ffffff;stroke-width:18.68874741000000100;fill:#230602;fill-opacity:1"
     inkscape:connector-curvature="0"
     id="path22"
     d="m 225.28278,333.05492 c 0,-24.30472 -19.70355,-44.01014 -44.01013,-44.01014 -24.30659,0 -44.01013,19.70542 -44.01013,44.01014 0,24.30471 19.70354,44.01013 44.01013,44.01013 24.30658,0 44.01013,-19.70355 44.01013,-44.01013 z" />
  <path
     style="fill:#230602;stroke:#230602;stroke-width:18.68866158000000200;fill-opacity:1;stroke-opacity:1"
     inkscape:connector-curvature="0"
     id="path26"
     d="M 110.46716,266.37896 134.1218,242.72433" />
  <path
     style="fill:#230602;stroke:#230602;stroke-width:18.68866158000000200;fill-opacity:1;stroke-opacity:1"
     inkscape:connector-curvature="0"
     id="path28"
     d="M 247.99706,403.90886 271.6517,380.25423" />
  <path
     style="fill:#ffffff"
     inkscape:connector-curvature="0"
     id="path32"
     d="M 21.011493,437.00022 77.374277,493.36301 102.17332,468.56397 45.810537,412.20118 z" />
</svg>
