<?xml version="1.0" encoding="UTF-8" standalone="no"?>
<svg
   xmlns:dc="http://purl.org/dc/elements/1.1/"
   xmlns:cc="http://creativecommons.org/ns#"
   xmlns:rdf="http://www.w3.org/1999/02/22-rdf-syntax-ns#"
   xmlns:svg="http://www.w3.org/2000/svg"
   xmlns="http://www.w3.org/2000/svg"
   xmlns:sodipodi="http://sodipodi.sourceforge.net/DTD/sodipodi-0.dtd"
   xmlns:inkscape="http://www.inkscape.org/namespaces/inkscape"
   viewBox="0 0 512 512"
   id="svg2"
   version="1.1"
   inkscape:version="0.48.4 r9939"
   width="100%"
   height="100%"
   sodipodi:docname="daggers.svg">
  <metadata
     id="metadata52">
    <rdf:RDF>
      <cc:Work
         rdf:about="">
        <dc:format>image/svg+xml</dc:format>
        <dc:type
           rdf:resource="http://purl.org/dc/dcmitype/StillImage" />
      </cc:Work>
    </rdf:RDF>
  </metadata>
  <defs
     id="defs50" />
  <sodipodi:namedview
     pagecolor="#ffffff"
     bordercolor="#666666"
     borderopacity="1"
     objecttolerance="10"
     gridtolerance="10"
     guidetolerance="10"
     inkscape:pageopacity="0"
     inkscape:pageshadow="2"
     inkscape:window-width="1680"
     inkscape:window-height="988"
     id="namedview48"
     showgrid="false"
     inkscape:zoom="0.65186406"
     inkscape:cx="20.404573"
     inkscape:cy="229.82891"
     inkscape:window-x="1432"
     inkscape:window-y="109"
     inkscape:window-maximized="1"
     inkscape:current-layer="svg2" />
  <path
     d="m0,0h512v512h-512z"
     id="path4"
     style="fill:#230602;fill-opacity:1" />
  <path
     style="fill:#ffffff"
     inkscape:connector-curvature="0"
     id="path8"
     d="m 255.64596,125.94083 c -59.79785,106.49688 -59.80346,260.61038 0,367.10725 59.42781,-120.92258 61.07054,-250.96333 0,-367.10725 z" />
  <path
     style="fill:#ffffff;stroke:#230602;stroke-width:18.68857956000000100;stroke-opacity:1"
     inkscape:connector-curvature="0"
     id="path10"
     d="M 280.24761,194.28684 H 231.38257 V 47.841256 h 48.86504 z" />
  <path
     style="fill:#ffffff;stroke:#230602;stroke-width:18.68857956000000100;stroke-opacity:1"
     inkscape:connector-curvature="0"
     id="path12"
     d="m 294.54998,20.120485 c -24.30824,-14.050074 -53.15967,-13.326826 -77.46978,0 v 29.369104 h 77.46978 V 20.120485 z" />
  <path
     style="fill:none;stroke:#230602;stroke-width:18.68857956000000100;stroke-opacity:1"
     inkscape:connector-curvature="0"
     id="path14"
     d="M 255.81416,220.27705 V 410.25767" />
  <path
     style="fill:#ffffff;stroke:#230602;stroke-width:18.68857956000000100;stroke-opacity:1"
     inkscape:connector-curvature="0"
     id="path16"
     d="m 223.40255,169.14696 c -4.4946,14.20893 -21.59092,25.0726 -42.63239,26.86483 v 29.78399 c 50.03681,-8.63412 100.05118,-7.83986 150.09173,0 v -29.78399 c -21.04148,-1.7941 -38.13779,-12.6559 -42.63239,-26.86483 h -64.82695 z" />
  <path
     style="fill:#ffffff;stroke:#230602;stroke-width:18.68792914999999900;stroke-opacity:1"
     inkscape:connector-curvature="0"
     id="path18"
     d="m 274.98647,221.25563 c 0,10.58751 -8.58394,19.17144 -19.17296,19.17144 -10.58902,0 -19.17296,-8.58393 -19.17296,-19.17144 0,-10.58751 8.58394,-19.17296 19.17296,-19.17296 10.58902,0 19.17296,8.58394 19.17296,19.17296 z" />
  <path
     d="M 436.39972,138.68385 C 351.07566,226.0755 311.18258,374.93691 341.38502,493.28376 430.08531,391.86211 465.32921,266.67703 436.39972,138.68385 z"
     id="path22"
     inkscape:connector-curvature="0"
     style="fill:#ffffff" />
  <path
     d="m 442.47387,211.06871 -47.2002,-12.64725 37.90305,-141.456178 47.2002,12.647248 z"
     id="path24"
     inkscape:connector-curvature="0"
     style="fill:#ffffff;stroke:#230602;stroke-width:18.68865967000000000;stroke-opacity:1" />
  <path
     d="M 501.36669,46.537945 C 481.52308,26.675099 453.46743,19.906379 426.53632,26.487219 l -7.60131,28.368498 74.83037,20.050726 7.60131,-28.368498 z"
     id="path26"
     inkscape:connector-curvature="0"
     style="fill:#ffffff;stroke:#230602;stroke-width:18.68865967000000000;stroke-opacity:1" />
  <path
     d="M 412.14608,229.84957 362.9753,413.35755"
     id="path28"
     inkscape:connector-curvature="0"
     style="fill:none;stroke:#230602;stroke-width:18.68865967000000000;stroke-opacity:1" />
  <path
     d="m 394.07223,172.07271 c -8.01903,12.56154 -27.3446,18.63022 -48.13306,14.91543 l -7.70869,28.76925 c 50.56673,4.61057 98.67155,18.3225 144.9781,38.84674 l 7.70869,-28.76925 c -19.86024,-7.17893 -33.56283,-22.09554 -34.22675,-36.98366 l -62.61829,-16.77851 z"
     id="path30"
     inkscape:connector-curvature="0"
     style="fill:#ffffff;stroke:#230602;stroke-width:18.68865967000000000;stroke-opacity:1" />
  <path
     d="m 430.41204,235.75607 c -2.74026,10.22679 -13.25343,16.29658 -23.48168,13.55593 -10.22826,-2.74065 -16.29804,-13.25383 -13.55778,-23.48062 2.74025,-10.2268 13.25382,-16.29804 23.48207,-13.55739 10.22826,2.74065 16.29804,13.25382 13.55739,23.48208 z"
     id="path32"
     inkscape:connector-curvature="0"
     style="fill:#ffffff;stroke:#230602;stroke-width:18.68800734999999900;stroke-opacity:1" />
  <path
     d="M 75.368285,138.68385 C 160.69234,226.0755 200.58542,374.93691 170.38298,493.28376 81.68269,391.86211 46.438786,266.67703 75.368285,138.68385 z"
     id="path36"
     inkscape:connector-curvature="0"
     style="fill:#ffffff" />
  <path
     d="M 69.29413,211.06871 116.49433,198.42146 78.591282,56.965282 31.391084,69.61253 z"
     id="path38"
     inkscape:connector-curvature="0"
     style="fill:#ffffff;stroke:#230602;stroke-width:18.68865967000000000;stroke-opacity:1" />
  <path
     d="M 10.401306,46.537945 C 30.24492,26.675099 58.300572,19.906379 85.231681,26.487219 L 92.832992,54.855717 18.002617,74.906443 10.401306,46.537945 z"
     id="path40"
     inkscape:connector-curvature="0"
     style="fill:#ffffff;stroke:#230602;stroke-width:18.68865967000000000;stroke-opacity:1" />
  <path
     d="M 99.621917,229.84957 148.7927,413.35755"
     id="path42"
     inkscape:connector-curvature="0"
     style="fill:none;stroke:#230602;stroke-width:18.68865967000000000;stroke-opacity:1" />
  <path
     d="m 117.69577,172.07271 c 8.01903,12.56154 27.3446,18.63022 48.13306,14.91543 l 7.70869,28.76925 c -50.56673,4.61057 -98.671549,18.3225 -144.978097,38.84674 L 20.85073,225.83488 c 19.86024,-7.17893 33.562829,-22.09554 34.226747,-36.98366 l 62.618293,-16.77851 z"
     id="path44"
     inkscape:connector-curvature="0"
     style="fill:#ffffff;stroke:#230602;stroke-width:18.68865967000000000;stroke-opacity:1" />
  <path
     d="m 81.355957,235.75607 c 2.740259,10.22679 13.253435,16.29658 23.481683,13.55593 10.22826,-2.74065 16.29804,-13.25383 13.55778,-23.48062 -2.74025,-10.2268 -13.25382,-16.29804 -23.482074,-13.55739 -10.228253,2.74065 -16.29804,13.25382 -13.557389,23.48208 z"
     id="path46"
     inkscape:connector-curvature="0"
     style="fill:#ffffff;stroke:#230602;stroke-width:18.68800734999999900;stroke-opacity:1" />
</svg>
