<?xml version="1.0" encoding="UTF-8" standalone="no"?>
<svg
   xmlns:dc="http://purl.org/dc/elements/1.1/"
   xmlns:cc="http://creativecommons.org/ns#"
   xmlns:rdf="http://www.w3.org/1999/02/22-rdf-syntax-ns#"
   xmlns:svg="http://www.w3.org/2000/svg"
   xmlns="http://www.w3.org/2000/svg"
   xmlns:sodipodi="http://sodipodi.sourceforge.net/DTD/sodipodi-0.dtd"
   xmlns:inkscape="http://www.inkscape.org/namespaces/inkscape"
   viewBox="0 0 512 512"
   id="svg2"
   version="1.1"
   inkscape:version="0.48.4 r9939"
   width="100%"
   height="100%"
   sodipodi:docname="shield.svg">
  <metadata
     id="metadata20">
    <rdf:RDF>
      <cc:Work
         rdf:about="">
        <dc:format>image/svg+xml</dc:format>
        <dc:type
           rdf:resource="http://purl.org/dc/dcmitype/StillImage" />
      </cc:Work>
    </rdf:RDF>
  </metadata>
  <defs
     id="defs18" />
  <sodipodi:namedview
     pagecolor="#ffffff"
     bordercolor="#666666"
     borderopacity="1"
     objecttolerance="10"
     gridtolerance="10"
     guidetolerance="10"
     inkscape:pageopacity="0"
     inkscape:pageshadow="2"
     inkscape:window-width="1680"
     inkscape:window-height="988"
     id="namedview16"
     showgrid="false"
     inkscape:zoom="0.65186406"
     inkscape:cx="277.6046"
     inkscape:cy="280.78174"
     inkscape:window-x="1432"
     inkscape:window-y="109"
     inkscape:window-maximized="1"
     inkscape:current-layer="svg2" />
  <path
     d="m0,0h512v512h-512z"
     id="path4"
     style="fill:#230602;fill-opacity:1" />
  <path
     style="fill-rule:evenodd;stroke:#ffffff;stroke-width:18.68857956000000100;fill:#230602;fill-opacity:1"
     inkscape:connector-curvature="0"
     id="path8"
     d="m 60.396431,35.563978 c 0,200.483612 37.26316,348.805522 197.134619,441.108422 156.10197,-90.12568 197.6579,-240.07163 197.6579,-441.108422 -128.6335,22.988822 -258.49484,25.728568 -394.792519,0 z" />
  <path
     style="fill:#ffffff;fill-rule:evenodd"
     inkscape:connector-curvature="0"
     id="path10"
     d="m 167.84455,156.06233 c -16.06283,93.66343 32.8863,100.55765 56.64322,64.51298 22.68046,-34.40941 -26.03506,-98.86819 63.06835,-125.44709 -47.66709,58.22988 39.50205,211.99391 60.45943,104.14959 61.8349,125.3088 -39.62914,224.20876 -100.92768,222.07079 C 188.73091,419.31528 86.360475,249.18005 167.84455,156.06047 z" />
  <path
     inkscape:connector-curvature="0"
     id="path12"
     d="m 316.2916,343.92371 c 0,45.59692 -26.93862,82.56438 -60.17133,82.56438 -33.23271,0 -60.17133,-36.96396 -60.17133,-82.56438 0,-45.60043 26.93862,-82.56439 60.17133,-82.56439 33.23271,0 60.17133,36.96396 60.17133,82.56439 z"
     style="fill:#230602;fill-opacity:1" />
  <path
     style="fill:#ffffff"
     inkscape:connector-curvature="0"
     id="path14"
     d="m 290.41608,298.51931 c 0,30.58397 -21.42354,55.37907 -47.85025,55.37907 -26.42672,0 -47.85026,-24.7935 -47.85026,-55.37907 0,-30.58556 21.42354,-55.37906 47.85026,-55.37906 26.42671,0 47.85025,24.7935 47.85025,55.37906 z" />
</svg>
